%TF.GenerationSoftware,KiCad,Pcbnew,(5.1.9-0-10_14)*%
%TF.CreationDate,2021-05-20T12:01:01+02:00*%
%TF.ProjectId,turbocan,74757262-6f63-4616-9e2e-6b696361645f,rev?*%
%TF.SameCoordinates,Original*%
%TF.FileFunction,Legend,Bot*%
%TF.FilePolarity,Positive*%
%FSLAX46Y46*%
G04 Gerber Fmt 4.6, Leading zero omitted, Abs format (unit mm)*
G04 Created by KiCad (PCBNEW (5.1.9-0-10_14)) date 2021-05-20 12:01:01*
%MOMM*%
%LPD*%
G01*
G04 APERTURE LIST*
%ADD10C,0.300000*%
%ADD11C,0.150000*%
%ADD12C,0.500000*%
%ADD13C,0.120000*%
%ADD14C,0.100000*%
G04 APERTURE END LIST*
D10*
X24821428Y-50233571D02*
X24821428Y-50947857D01*
X24107142Y-51019285D01*
X24178571Y-50947857D01*
X24250000Y-50805000D01*
X24250000Y-50447857D01*
X24178571Y-50305000D01*
X24107142Y-50233571D01*
X23964285Y-50162142D01*
X23607142Y-50162142D01*
X23464285Y-50233571D01*
X23392857Y-50305000D01*
X23321428Y-50447857D01*
X23321428Y-50805000D01*
X23392857Y-50947857D01*
X23464285Y-51019285D01*
X24821428Y-49733571D02*
X23321428Y-49233571D01*
X24821428Y-48733571D01*
X24321428Y-24337857D02*
X24321428Y-25052142D01*
X23607142Y-25123571D01*
X23678571Y-25052142D01*
X23750000Y-24909285D01*
X23750000Y-24552142D01*
X23678571Y-24409285D01*
X23607142Y-24337857D01*
X23464285Y-24266428D01*
X23107142Y-24266428D01*
X22964285Y-24337857D01*
X22892857Y-24409285D01*
X22821428Y-24552142D01*
X22821428Y-24909285D01*
X22892857Y-25052142D01*
X22964285Y-25123571D01*
X24321428Y-23837857D02*
X22821428Y-23337857D01*
X24321428Y-22837857D01*
X17178571Y-27552142D02*
X17250000Y-27480714D01*
X17321428Y-27337857D01*
X17321428Y-26980714D01*
X17250000Y-26837857D01*
X17178571Y-26766428D01*
X17035714Y-26695000D01*
X16892857Y-26695000D01*
X16678571Y-26766428D01*
X15821428Y-27623571D01*
X15821428Y-26695000D01*
X16821428Y-25409285D02*
X15821428Y-25409285D01*
X17392857Y-25766428D02*
X16321428Y-26123571D01*
X16321428Y-25195000D01*
X17321428Y-24837857D02*
X15821428Y-24337857D01*
X17321428Y-23837857D01*
D11*
X37990476Y-55611904D02*
X37990476Y-54811904D01*
X37685714Y-54811904D01*
X37609523Y-54850000D01*
X37571428Y-54888095D01*
X37533333Y-54964285D01*
X37533333Y-55078571D01*
X37571428Y-55154761D01*
X37609523Y-55192857D01*
X37685714Y-55230952D01*
X37990476Y-55230952D01*
X36923809Y-55192857D02*
X36809523Y-55230952D01*
X36771428Y-55269047D01*
X36733333Y-55345238D01*
X36733333Y-55459523D01*
X36771428Y-55535714D01*
X36809523Y-55573809D01*
X36885714Y-55611904D01*
X37190476Y-55611904D01*
X37190476Y-54811904D01*
X36923809Y-54811904D01*
X36847619Y-54850000D01*
X36809523Y-54888095D01*
X36771428Y-54964285D01*
X36771428Y-55040476D01*
X36809523Y-55116666D01*
X36847619Y-55154761D01*
X36923809Y-55192857D01*
X37190476Y-55192857D01*
X35971428Y-55611904D02*
X36428571Y-55611904D01*
X36200000Y-55611904D02*
X36200000Y-54811904D01*
X36276190Y-54926190D01*
X36352380Y-55002380D01*
X36428571Y-55040476D01*
X32990476Y-53961904D02*
X32990476Y-53161904D01*
X32685714Y-53161904D01*
X32609523Y-53200000D01*
X32571428Y-53238095D01*
X32533333Y-53314285D01*
X32533333Y-53428571D01*
X32571428Y-53504761D01*
X32609523Y-53542857D01*
X32685714Y-53580952D01*
X32990476Y-53580952D01*
X31923809Y-53542857D02*
X31809523Y-53580952D01*
X31771428Y-53619047D01*
X31733333Y-53695238D01*
X31733333Y-53809523D01*
X31771428Y-53885714D01*
X31809523Y-53923809D01*
X31885714Y-53961904D01*
X32190476Y-53961904D01*
X32190476Y-53161904D01*
X31923809Y-53161904D01*
X31847619Y-53200000D01*
X31809523Y-53238095D01*
X31771428Y-53314285D01*
X31771428Y-53390476D01*
X31809523Y-53466666D01*
X31847619Y-53504761D01*
X31923809Y-53542857D01*
X32190476Y-53542857D01*
X31009523Y-53161904D02*
X31390476Y-53161904D01*
X31428571Y-53542857D01*
X31390476Y-53504761D01*
X31314285Y-53466666D01*
X31123809Y-53466666D01*
X31047619Y-53504761D01*
X31009523Y-53542857D01*
X30971428Y-53619047D01*
X30971428Y-53809523D01*
X31009523Y-53885714D01*
X31047619Y-53923809D01*
X31123809Y-53961904D01*
X31314285Y-53961904D01*
X31390476Y-53923809D01*
X31428571Y-53885714D01*
X33657142Y-50761904D02*
X33657142Y-49961904D01*
X33390476Y-50533333D01*
X33123809Y-49961904D01*
X33123809Y-50761904D01*
X32742857Y-50761904D02*
X32742857Y-49961904D01*
X32400000Y-50723809D02*
X32285714Y-50761904D01*
X32095238Y-50761904D01*
X32019047Y-50723809D01*
X31980952Y-50685714D01*
X31942857Y-50609523D01*
X31942857Y-50533333D01*
X31980952Y-50457142D01*
X32019047Y-50419047D01*
X32095238Y-50380952D01*
X32247619Y-50342857D01*
X32323809Y-50304761D01*
X32361904Y-50266666D01*
X32400000Y-50190476D01*
X32400000Y-50114285D01*
X32361904Y-50038095D01*
X32323809Y-50000000D01*
X32247619Y-49961904D01*
X32057142Y-49961904D01*
X31942857Y-50000000D01*
X31447619Y-49961904D02*
X31295238Y-49961904D01*
X31219047Y-50000000D01*
X31142857Y-50076190D01*
X31104761Y-50228571D01*
X31104761Y-50495238D01*
X31142857Y-50647619D01*
X31219047Y-50723809D01*
X31295238Y-50761904D01*
X31447619Y-50761904D01*
X31523809Y-50723809D01*
X31600000Y-50647619D01*
X31638095Y-50495238D01*
X31638095Y-50228571D01*
X31600000Y-50076190D01*
X31523809Y-50000000D01*
X31447619Y-49961904D01*
X32033333Y-42985714D02*
X32071428Y-43023809D01*
X32185714Y-43061904D01*
X32261904Y-43061904D01*
X32376190Y-43023809D01*
X32452380Y-42947619D01*
X32490476Y-42871428D01*
X32528571Y-42719047D01*
X32528571Y-42604761D01*
X32490476Y-42452380D01*
X32452380Y-42376190D01*
X32376190Y-42300000D01*
X32261904Y-42261904D01*
X32185714Y-42261904D01*
X32071428Y-42300000D01*
X32033333Y-42338095D01*
X31728571Y-43023809D02*
X31614285Y-43061904D01*
X31423809Y-43061904D01*
X31347619Y-43023809D01*
X31309523Y-42985714D01*
X31271428Y-42909523D01*
X31271428Y-42833333D01*
X31309523Y-42757142D01*
X31347619Y-42719047D01*
X31423809Y-42680952D01*
X31576190Y-42642857D01*
X31652380Y-42604761D01*
X31690476Y-42566666D01*
X31728571Y-42490476D01*
X31728571Y-42414285D01*
X31690476Y-42338095D01*
X31652380Y-42300000D01*
X31576190Y-42261904D01*
X31385714Y-42261904D01*
X31271428Y-42300000D01*
X33757142Y-40461904D02*
X33757142Y-39661904D01*
X33490476Y-40233333D01*
X33223809Y-39661904D01*
X33223809Y-40461904D01*
X32690476Y-39661904D02*
X32538095Y-39661904D01*
X32461904Y-39700000D01*
X32385714Y-39776190D01*
X32347619Y-39928571D01*
X32347619Y-40195238D01*
X32385714Y-40347619D01*
X32461904Y-40423809D01*
X32538095Y-40461904D01*
X32690476Y-40461904D01*
X32766666Y-40423809D01*
X32842857Y-40347619D01*
X32880952Y-40195238D01*
X32880952Y-39928571D01*
X32842857Y-39776190D01*
X32766666Y-39700000D01*
X32690476Y-39661904D01*
X32042857Y-40423809D02*
X31928571Y-40461904D01*
X31738095Y-40461904D01*
X31661904Y-40423809D01*
X31623809Y-40385714D01*
X31585714Y-40309523D01*
X31585714Y-40233333D01*
X31623809Y-40157142D01*
X31661904Y-40119047D01*
X31738095Y-40080952D01*
X31890476Y-40042857D01*
X31966666Y-40004761D01*
X32004761Y-39966666D01*
X32042857Y-39890476D01*
X32042857Y-39814285D01*
X32004761Y-39738095D01*
X31966666Y-39700000D01*
X31890476Y-39661904D01*
X31700000Y-39661904D01*
X31585714Y-39700000D01*
X31242857Y-40461904D02*
X31242857Y-39661904D01*
X33128571Y-37923809D02*
X33014285Y-37961904D01*
X32823809Y-37961904D01*
X32747619Y-37923809D01*
X32709523Y-37885714D01*
X32671428Y-37809523D01*
X32671428Y-37733333D01*
X32709523Y-37657142D01*
X32747619Y-37619047D01*
X32823809Y-37580952D01*
X32976190Y-37542857D01*
X33052380Y-37504761D01*
X33090476Y-37466666D01*
X33128571Y-37390476D01*
X33128571Y-37314285D01*
X33090476Y-37238095D01*
X33052380Y-37200000D01*
X32976190Y-37161904D01*
X32785714Y-37161904D01*
X32671428Y-37200000D01*
X31871428Y-37885714D02*
X31909523Y-37923809D01*
X32023809Y-37961904D01*
X32100000Y-37961904D01*
X32214285Y-37923809D01*
X32290476Y-37847619D01*
X32328571Y-37771428D01*
X32366666Y-37619047D01*
X32366666Y-37504761D01*
X32328571Y-37352380D01*
X32290476Y-37276190D01*
X32214285Y-37200000D01*
X32100000Y-37161904D01*
X32023809Y-37161904D01*
X31909523Y-37200000D01*
X31871428Y-37238095D01*
X31528571Y-37961904D02*
X31528571Y-37161904D01*
X31071428Y-37961904D02*
X31414285Y-37504761D01*
X31071428Y-37161904D02*
X31528571Y-37619047D01*
X48990476Y-23161904D02*
X48990476Y-22361904D01*
X48800000Y-22361904D01*
X48685714Y-22400000D01*
X48609523Y-22476190D01*
X48571428Y-22552380D01*
X48533333Y-22704761D01*
X48533333Y-22819047D01*
X48571428Y-22971428D01*
X48609523Y-23047619D01*
X48685714Y-23123809D01*
X48800000Y-23161904D01*
X48990476Y-23161904D01*
X48190476Y-22742857D02*
X47923809Y-22742857D01*
X47809523Y-23161904D02*
X48190476Y-23161904D01*
X48190476Y-22361904D01*
X47809523Y-22361904D01*
X47200000Y-22742857D02*
X47085714Y-22780952D01*
X47047619Y-22819047D01*
X47009523Y-22895238D01*
X47009523Y-23009523D01*
X47047619Y-23085714D01*
X47085714Y-23123809D01*
X47161904Y-23161904D01*
X47466666Y-23161904D01*
X47466666Y-22361904D01*
X47200000Y-22361904D01*
X47123809Y-22400000D01*
X47085714Y-22438095D01*
X47047619Y-22514285D01*
X47047619Y-22590476D01*
X47085714Y-22666666D01*
X47123809Y-22704761D01*
X47200000Y-22742857D01*
X47466666Y-22742857D01*
X46666666Y-22361904D02*
X46666666Y-23009523D01*
X46628571Y-23085714D01*
X46590476Y-23123809D01*
X46514285Y-23161904D01*
X46361904Y-23161904D01*
X46285714Y-23123809D01*
X46247619Y-23085714D01*
X46209523Y-23009523D01*
X46209523Y-22361904D01*
X45409523Y-22400000D02*
X45485714Y-22361904D01*
X45600000Y-22361904D01*
X45714285Y-22400000D01*
X45790476Y-22476190D01*
X45828571Y-22552380D01*
X45866666Y-22704761D01*
X45866666Y-22819047D01*
X45828571Y-22971428D01*
X45790476Y-23047619D01*
X45714285Y-23123809D01*
X45600000Y-23161904D01*
X45523809Y-23161904D01*
X45409523Y-23123809D01*
X45371428Y-23085714D01*
X45371428Y-22819047D01*
X45523809Y-22819047D01*
X42261904Y-29319047D02*
X42261904Y-29814285D01*
X42566666Y-29547619D01*
X42566666Y-29661904D01*
X42604761Y-29738095D01*
X42642857Y-29776190D01*
X42719047Y-29814285D01*
X42909523Y-29814285D01*
X42985714Y-29776190D01*
X43023809Y-29738095D01*
X43061904Y-29661904D01*
X43061904Y-29433333D01*
X43023809Y-29357142D01*
X42985714Y-29319047D01*
X42985714Y-30157142D02*
X43023809Y-30195238D01*
X43061904Y-30157142D01*
X43023809Y-30119047D01*
X42985714Y-30157142D01*
X43061904Y-30157142D01*
X42261904Y-30461904D02*
X42261904Y-30957142D01*
X42566666Y-30690476D01*
X42566666Y-30804761D01*
X42604761Y-30880952D01*
X42642857Y-30919047D01*
X42719047Y-30957142D01*
X42909523Y-30957142D01*
X42985714Y-30919047D01*
X43023809Y-30880952D01*
X43061904Y-30804761D01*
X43061904Y-30576190D01*
X43023809Y-30500000D01*
X42985714Y-30461904D01*
X42261904Y-31185714D02*
X43061904Y-31452380D01*
X42261904Y-31719047D01*
X43842857Y-29571428D02*
X43880952Y-29685714D01*
X43919047Y-29723809D01*
X43995238Y-29761904D01*
X44109523Y-29761904D01*
X44185714Y-29723809D01*
X44223809Y-29685714D01*
X44261904Y-29609523D01*
X44261904Y-29304761D01*
X43461904Y-29304761D01*
X43461904Y-29571428D01*
X43500000Y-29647619D01*
X43538095Y-29685714D01*
X43614285Y-29723809D01*
X43690476Y-29723809D01*
X43766666Y-29685714D01*
X43804761Y-29647619D01*
X43842857Y-29571428D01*
X43842857Y-29304761D01*
X43461904Y-29990476D02*
X43461904Y-30447619D01*
X44261904Y-30219047D02*
X43461904Y-30219047D01*
X43461904Y-30866666D02*
X43461904Y-30942857D01*
X43500000Y-31019047D01*
X43538095Y-31057142D01*
X43614285Y-31095238D01*
X43766666Y-31133333D01*
X43957142Y-31133333D01*
X44109523Y-31095238D01*
X44185714Y-31057142D01*
X44223809Y-31019047D01*
X44261904Y-30942857D01*
X44261904Y-30866666D01*
X44223809Y-30790476D01*
X44185714Y-30752380D01*
X44109523Y-30714285D01*
X43957142Y-30676190D01*
X43766666Y-30676190D01*
X43614285Y-30714285D01*
X43538095Y-30752380D01*
X43500000Y-30790476D01*
X43461904Y-30866666D01*
X42300000Y-26890476D02*
X42261904Y-26814285D01*
X42261904Y-26700000D01*
X42300000Y-26585714D01*
X42376190Y-26509523D01*
X42452380Y-26471428D01*
X42604761Y-26433333D01*
X42719047Y-26433333D01*
X42871428Y-26471428D01*
X42947619Y-26509523D01*
X43023809Y-26585714D01*
X43061904Y-26700000D01*
X43061904Y-26776190D01*
X43023809Y-26890476D01*
X42985714Y-26928571D01*
X42719047Y-26928571D01*
X42719047Y-26776190D01*
X43061904Y-27271428D02*
X42261904Y-27271428D01*
X43061904Y-27728571D01*
X42261904Y-27728571D01*
X43061904Y-28109523D02*
X42261904Y-28109523D01*
X42261904Y-28300000D01*
X42300000Y-28414285D01*
X42376190Y-28490476D01*
X42452380Y-28528571D01*
X42604761Y-28566666D01*
X42719047Y-28566666D01*
X42871428Y-28528571D01*
X42947619Y-28490476D01*
X43023809Y-28414285D01*
X43061904Y-28300000D01*
X43061904Y-28109523D01*
X44261904Y-27061904D02*
X43880952Y-26795238D01*
X44261904Y-26604761D02*
X43461904Y-26604761D01*
X43461904Y-26909523D01*
X43500000Y-26985714D01*
X43538095Y-27023809D01*
X43614285Y-27061904D01*
X43728571Y-27061904D01*
X43804761Y-27023809D01*
X43842857Y-26985714D01*
X43880952Y-26909523D01*
X43880952Y-26604761D01*
X44223809Y-27366666D02*
X44261904Y-27480952D01*
X44261904Y-27671428D01*
X44223809Y-27747619D01*
X44185714Y-27785714D01*
X44109523Y-27823809D01*
X44033333Y-27823809D01*
X43957142Y-27785714D01*
X43919047Y-27747619D01*
X43880952Y-27671428D01*
X43842857Y-27519047D01*
X43804761Y-27442857D01*
X43766666Y-27404761D01*
X43690476Y-27366666D01*
X43614285Y-27366666D01*
X43538095Y-27404761D01*
X43500000Y-27442857D01*
X43461904Y-27519047D01*
X43461904Y-27709523D01*
X43500000Y-27823809D01*
X43461904Y-28052380D02*
X43461904Y-28509523D01*
X44261904Y-28280952D02*
X43461904Y-28280952D01*
X43023809Y-23614285D02*
X43061904Y-23728571D01*
X43061904Y-23919047D01*
X43023809Y-23995238D01*
X42985714Y-24033333D01*
X42909523Y-24071428D01*
X42833333Y-24071428D01*
X42757142Y-24033333D01*
X42719047Y-23995238D01*
X42680952Y-23919047D01*
X42642857Y-23766666D01*
X42604761Y-23690476D01*
X42566666Y-23652380D01*
X42490476Y-23614285D01*
X42414285Y-23614285D01*
X42338095Y-23652380D01*
X42300000Y-23690476D01*
X42261904Y-23766666D01*
X42261904Y-23957142D01*
X42300000Y-24071428D01*
X42261904Y-24338095D02*
X43061904Y-24528571D01*
X42490476Y-24680952D01*
X43061904Y-24833333D01*
X42261904Y-25023809D01*
X42985714Y-25785714D02*
X43023809Y-25747619D01*
X43061904Y-25633333D01*
X43061904Y-25557142D01*
X43023809Y-25442857D01*
X42947619Y-25366666D01*
X42871428Y-25328571D01*
X42719047Y-25290476D01*
X42604761Y-25290476D01*
X42452380Y-25328571D01*
X42376190Y-25366666D01*
X42300000Y-25442857D01*
X42261904Y-25557142D01*
X42261904Y-25633333D01*
X42300000Y-25747619D01*
X42338095Y-25785714D01*
X26257142Y-54652380D02*
X25685714Y-54652380D01*
X25971428Y-55652380D02*
X25971428Y-54652380D01*
X24923809Y-54985714D02*
X24923809Y-55652380D01*
X25352380Y-54985714D02*
X25352380Y-55509523D01*
X25304761Y-55604761D01*
X25209523Y-55652380D01*
X25066666Y-55652380D01*
X24971428Y-55604761D01*
X24923809Y-55557142D01*
X24447619Y-55652380D02*
X24447619Y-54985714D01*
X24447619Y-55176190D02*
X24400000Y-55080952D01*
X24352380Y-55033333D01*
X24257142Y-54985714D01*
X24161904Y-54985714D01*
X23828571Y-55652380D02*
X23828571Y-54652380D01*
X23828571Y-55033333D02*
X23733333Y-54985714D01*
X23542857Y-54985714D01*
X23447619Y-55033333D01*
X23400000Y-55080952D01*
X23352380Y-55176190D01*
X23352380Y-55461904D01*
X23400000Y-55557142D01*
X23447619Y-55604761D01*
X23542857Y-55652380D01*
X23733333Y-55652380D01*
X23828571Y-55604761D01*
X22780952Y-55652380D02*
X22876190Y-55604761D01*
X22923809Y-55557142D01*
X22971428Y-55461904D01*
X22971428Y-55176190D01*
X22923809Y-55080952D01*
X22876190Y-55033333D01*
X22780952Y-54985714D01*
X22638095Y-54985714D01*
X22542857Y-55033333D01*
X22495238Y-55080952D01*
X22447619Y-55176190D01*
X22447619Y-55461904D01*
X22495238Y-55557142D01*
X22542857Y-55604761D01*
X22638095Y-55652380D01*
X22780952Y-55652380D01*
X21447619Y-55557142D02*
X21495238Y-55604761D01*
X21638095Y-55652380D01*
X21733333Y-55652380D01*
X21876190Y-55604761D01*
X21971428Y-55509523D01*
X22019047Y-55414285D01*
X22066666Y-55223809D01*
X22066666Y-55080952D01*
X22019047Y-54890476D01*
X21971428Y-54795238D01*
X21876190Y-54700000D01*
X21733333Y-54652380D01*
X21638095Y-54652380D01*
X21495238Y-54700000D01*
X21447619Y-54747619D01*
X21066666Y-55366666D02*
X20590476Y-55366666D01*
X21161904Y-55652380D02*
X20828571Y-54652380D01*
X20495238Y-55652380D01*
X20161904Y-55652380D02*
X20161904Y-54652380D01*
X19590476Y-55652380D01*
X19590476Y-54652380D01*
X18447619Y-54985714D02*
X18209523Y-55652380D01*
X17971428Y-54985714D01*
X17400000Y-54652380D02*
X17304761Y-54652380D01*
X17209523Y-54700000D01*
X17161904Y-54747619D01*
X17114285Y-54842857D01*
X17066666Y-55033333D01*
X17066666Y-55271428D01*
X17114285Y-55461904D01*
X17161904Y-55557142D01*
X17209523Y-55604761D01*
X17304761Y-55652380D01*
X17400000Y-55652380D01*
X17495238Y-55604761D01*
X17542857Y-55557142D01*
X17590476Y-55461904D01*
X17638095Y-55271428D01*
X17638095Y-55033333D01*
X17590476Y-54842857D01*
X17542857Y-54747619D01*
X17495238Y-54700000D01*
X17400000Y-54652380D01*
X16638095Y-55557142D02*
X16590476Y-55604761D01*
X16638095Y-55652380D01*
X16685714Y-55604761D01*
X16638095Y-55557142D01*
X16638095Y-55652380D01*
X16209523Y-54747619D02*
X16161904Y-54700000D01*
X16066666Y-54652380D01*
X15828571Y-54652380D01*
X15733333Y-54700000D01*
X15685714Y-54747619D01*
X15638095Y-54842857D01*
X15638095Y-54938095D01*
X15685714Y-55080952D01*
X16257142Y-55652380D01*
X15638095Y-55652380D01*
X22266666Y-15133333D02*
X21885714Y-15133333D01*
X22342857Y-15361904D02*
X22076190Y-14561904D01*
X21809523Y-15361904D01*
X21085714Y-15285714D02*
X21123809Y-15323809D01*
X21238095Y-15361904D01*
X21314285Y-15361904D01*
X21428571Y-15323809D01*
X21504761Y-15247619D01*
X21542857Y-15171428D01*
X21580952Y-15019047D01*
X21580952Y-14904761D01*
X21542857Y-14752380D01*
X21504761Y-14676190D01*
X21428571Y-14600000D01*
X21314285Y-14561904D01*
X21238095Y-14561904D01*
X21123809Y-14600000D01*
X21085714Y-14638095D01*
X20857142Y-14561904D02*
X20400000Y-14561904D01*
X20628571Y-15361904D02*
X20628571Y-14561904D01*
X20133333Y-15361904D02*
X20133333Y-14561904D01*
X19866666Y-14561904D02*
X19600000Y-15361904D01*
X19333333Y-14561904D01*
X19066666Y-15361904D02*
X19066666Y-14561904D01*
X18800000Y-14561904D02*
X18342857Y-14561904D01*
X18571428Y-15361904D02*
X18571428Y-14561904D01*
X17923809Y-14980952D02*
X17923809Y-15361904D01*
X18190476Y-14561904D02*
X17923809Y-14980952D01*
X17657142Y-14561904D01*
X52847619Y-15361904D02*
X52847619Y-14561904D01*
X52542857Y-14561904D01*
X52466666Y-14600000D01*
X52428571Y-14638095D01*
X52390476Y-14714285D01*
X52390476Y-14828571D01*
X52428571Y-14904761D01*
X52466666Y-14942857D01*
X52542857Y-14980952D01*
X52847619Y-14980952D01*
X51895238Y-14561904D02*
X51742857Y-14561904D01*
X51666666Y-14600000D01*
X51590476Y-14676190D01*
X51552380Y-14828571D01*
X51552380Y-15095238D01*
X51590476Y-15247619D01*
X51666666Y-15323809D01*
X51742857Y-15361904D01*
X51895238Y-15361904D01*
X51971428Y-15323809D01*
X52047619Y-15247619D01*
X52085714Y-15095238D01*
X52085714Y-14828571D01*
X52047619Y-14676190D01*
X51971428Y-14600000D01*
X51895238Y-14561904D01*
X51285714Y-14561904D02*
X51095238Y-15361904D01*
X50942857Y-14790476D01*
X50790476Y-15361904D01*
X50600000Y-14561904D01*
X50295238Y-14942857D02*
X50028571Y-14942857D01*
X49914285Y-15361904D02*
X50295238Y-15361904D01*
X50295238Y-14561904D01*
X49914285Y-14561904D01*
X49114285Y-15361904D02*
X49380952Y-14980952D01*
X49571428Y-15361904D02*
X49571428Y-14561904D01*
X49266666Y-14561904D01*
X49190476Y-14600000D01*
X49152380Y-14638095D01*
X49114285Y-14714285D01*
X49114285Y-14828571D01*
X49152380Y-14904761D01*
X49190476Y-14942857D01*
X49266666Y-14980952D01*
X49571428Y-14980952D01*
D10*
X45971428Y-16578571D02*
X45971428Y-17792857D01*
X45900000Y-17935714D01*
X45828571Y-18007142D01*
X45685714Y-18078571D01*
X45400000Y-18078571D01*
X45257142Y-18007142D01*
X45185714Y-17935714D01*
X45114285Y-17792857D01*
X45114285Y-16578571D01*
X44471428Y-18007142D02*
X44257142Y-18078571D01*
X43900000Y-18078571D01*
X43757142Y-18007142D01*
X43685714Y-17935714D01*
X43614285Y-17792857D01*
X43614285Y-17650000D01*
X43685714Y-17507142D01*
X43757142Y-17435714D01*
X43900000Y-17364285D01*
X44185714Y-17292857D01*
X44328571Y-17221428D01*
X44400000Y-17150000D01*
X44471428Y-17007142D01*
X44471428Y-16864285D01*
X44400000Y-16721428D01*
X44328571Y-16650000D01*
X44185714Y-16578571D01*
X43828571Y-16578571D01*
X43614285Y-16650000D01*
X42471428Y-17292857D02*
X42257142Y-17364285D01*
X42185714Y-17435714D01*
X42114285Y-17578571D01*
X42114285Y-17792857D01*
X42185714Y-17935714D01*
X42257142Y-18007142D01*
X42400000Y-18078571D01*
X42971428Y-18078571D01*
X42971428Y-16578571D01*
X42471428Y-16578571D01*
X42328571Y-16650000D01*
X42257142Y-16721428D01*
X42185714Y-16864285D01*
X42185714Y-17007142D01*
X42257142Y-17150000D01*
X42328571Y-17221428D01*
X42471428Y-17292857D01*
X42971428Y-17292857D01*
X41471428Y-17507142D02*
X40328571Y-17507142D01*
X38757142Y-17935714D02*
X38828571Y-18007142D01*
X39042857Y-18078571D01*
X39185714Y-18078571D01*
X39400000Y-18007142D01*
X39542857Y-17864285D01*
X39614285Y-17721428D01*
X39685714Y-17435714D01*
X39685714Y-17221428D01*
X39614285Y-16935714D01*
X39542857Y-16792857D01*
X39400000Y-16650000D01*
X39185714Y-16578571D01*
X39042857Y-16578571D01*
X38828571Y-16650000D01*
X38757142Y-16721428D01*
X30164285Y-22535714D02*
X30235714Y-22607142D01*
X30450000Y-22678571D01*
X30592857Y-22678571D01*
X30807142Y-22607142D01*
X30950000Y-22464285D01*
X31021428Y-22321428D01*
X31092857Y-22035714D01*
X31092857Y-21821428D01*
X31021428Y-21535714D01*
X30950000Y-21392857D01*
X30807142Y-21250000D01*
X30592857Y-21178571D01*
X30450000Y-21178571D01*
X30235714Y-21250000D01*
X30164285Y-21321428D01*
X29592857Y-22250000D02*
X28878571Y-22250000D01*
X29735714Y-22678571D02*
X29235714Y-21178571D01*
X28735714Y-22678571D01*
X28235714Y-22678571D02*
X28235714Y-21178571D01*
X27378571Y-22678571D01*
X27378571Y-21178571D01*
D11*
X44223809Y-23404761D02*
X44261904Y-23519047D01*
X44261904Y-23709523D01*
X44223809Y-23785714D01*
X44185714Y-23823809D01*
X44109523Y-23861904D01*
X44033333Y-23861904D01*
X43957142Y-23823809D01*
X43919047Y-23785714D01*
X43880952Y-23709523D01*
X43842857Y-23557142D01*
X43804761Y-23480952D01*
X43766666Y-23442857D01*
X43690476Y-23404761D01*
X43614285Y-23404761D01*
X43538095Y-23442857D01*
X43500000Y-23480952D01*
X43461904Y-23557142D01*
X43461904Y-23747619D01*
X43500000Y-23861904D01*
X43461904Y-24128571D02*
X44261904Y-24319047D01*
X43690476Y-24471428D01*
X44261904Y-24623809D01*
X43461904Y-24814285D01*
X44261904Y-25119047D02*
X43461904Y-25119047D01*
X43461904Y-25652380D02*
X43461904Y-25804761D01*
X43500000Y-25880952D01*
X43576190Y-25957142D01*
X43728571Y-25995238D01*
X43995238Y-25995238D01*
X44147619Y-25957142D01*
X44223809Y-25880952D01*
X44261904Y-25804761D01*
X44261904Y-25652380D01*
X44223809Y-25576190D01*
X44147619Y-25500000D01*
X43995238Y-25461904D01*
X43728571Y-25461904D01*
X43576190Y-25500000D01*
X43500000Y-25576190D01*
X43461904Y-25652380D01*
D10*
X55292857Y-17871428D02*
X55292857Y-17371428D01*
X56078571Y-17371428D02*
X54578571Y-17371428D01*
X54578571Y-18085714D01*
X55650000Y-18585714D02*
X55650000Y-19300000D01*
X56078571Y-18442857D02*
X54578571Y-18942857D01*
X56078571Y-19442857D01*
X56078571Y-19942857D02*
X54578571Y-19942857D01*
X56078571Y-20800000D01*
X54578571Y-20800000D01*
X56078571Y-22300000D02*
X56078571Y-21442857D01*
X56078571Y-21871428D02*
X54578571Y-21871428D01*
X54792857Y-21728571D01*
X54935714Y-21585714D01*
X55007142Y-21442857D01*
X48814285Y-33307142D02*
X49957142Y-33307142D01*
X49671428Y-33592857D02*
X49957142Y-33307142D01*
X49671428Y-33021428D01*
X47600000Y-33092857D02*
X48100000Y-33092857D01*
X48100000Y-33878571D02*
X48100000Y-32378571D01*
X47385714Y-32378571D01*
X46885714Y-33450000D02*
X46171428Y-33450000D01*
X47028571Y-33878571D02*
X46528571Y-32378571D01*
X46028571Y-33878571D01*
X45528571Y-33878571D02*
X45528571Y-32378571D01*
X44671428Y-33878571D01*
X44671428Y-32378571D01*
X43671428Y-32378571D02*
X43528571Y-32378571D01*
X43385714Y-32450000D01*
X43314285Y-32521428D01*
X43242857Y-32664285D01*
X43171428Y-32950000D01*
X43171428Y-33307142D01*
X43242857Y-33592857D01*
X43314285Y-33735714D01*
X43385714Y-33807142D01*
X43528571Y-33878571D01*
X43671428Y-33878571D01*
X43814285Y-33807142D01*
X43885714Y-33735714D01*
X43957142Y-33592857D01*
X44028571Y-33307142D01*
X44028571Y-32950000D01*
X43957142Y-32664285D01*
X43885714Y-32521428D01*
X43814285Y-32450000D01*
X43671428Y-32378571D01*
X56278571Y-49078571D02*
X54778571Y-49078571D01*
X55492857Y-49078571D02*
X55492857Y-49935714D01*
X56278571Y-49935714D02*
X54778571Y-49935714D01*
X55492857Y-50650000D02*
X55492857Y-51150000D01*
X56278571Y-51364285D02*
X56278571Y-50650000D01*
X54778571Y-50650000D01*
X54778571Y-51364285D01*
X55850000Y-51935714D02*
X55850000Y-52650000D01*
X56278571Y-51792857D02*
X54778571Y-52292857D01*
X56278571Y-52792857D01*
X54778571Y-53078571D02*
X54778571Y-53935714D01*
X56278571Y-53507142D02*
X54778571Y-53507142D01*
X47678571Y-48807142D02*
X46178571Y-48807142D01*
X47250000Y-49307142D01*
X46178571Y-49807142D01*
X47678571Y-49807142D01*
X46178571Y-50807142D02*
X46178571Y-51092857D01*
X46250000Y-51235714D01*
X46392857Y-51378571D01*
X46678571Y-51450000D01*
X47178571Y-51450000D01*
X47464285Y-51378571D01*
X47607142Y-51235714D01*
X47678571Y-51092857D01*
X47678571Y-50807142D01*
X47607142Y-50664285D01*
X47464285Y-50521428D01*
X47178571Y-50450000D01*
X46678571Y-50450000D01*
X46392857Y-50521428D01*
X46250000Y-50664285D01*
X46178571Y-50807142D01*
X46178571Y-51878571D02*
X46178571Y-52735714D01*
X47678571Y-52307142D02*
X46178571Y-52307142D01*
X46178571Y-53521428D02*
X46178571Y-53807142D01*
X46250000Y-53950000D01*
X46392857Y-54092857D01*
X46678571Y-54164285D01*
X47178571Y-54164285D01*
X47464285Y-54092857D01*
X47607142Y-53950000D01*
X47678571Y-53807142D01*
X47678571Y-53521428D01*
X47607142Y-53378571D01*
X47464285Y-53235714D01*
X47178571Y-53164285D01*
X46678571Y-53164285D01*
X46392857Y-53235714D01*
X46250000Y-53378571D01*
X46178571Y-53521428D01*
X47678571Y-55664285D02*
X46964285Y-55164285D01*
X47678571Y-54807142D02*
X46178571Y-54807142D01*
X46178571Y-55378571D01*
X46250000Y-55521428D01*
X46321428Y-55592857D01*
X46464285Y-55664285D01*
X46678571Y-55664285D01*
X46821428Y-55592857D01*
X46892857Y-55521428D01*
X46964285Y-55378571D01*
X46964285Y-54807142D01*
X26821428Y-25000000D02*
X25321428Y-24000000D01*
X26821428Y-24000000D02*
X25321428Y-25000000D01*
X26535714Y-49200000D02*
X25821428Y-49200000D01*
X27321428Y-49700000D02*
X26535714Y-49200000D01*
X27321428Y-48700000D01*
X19821428Y-27500000D02*
X19821428Y-26500000D01*
X18321428Y-27500000D01*
X18321428Y-26500000D01*
X16221428Y-51214285D02*
X16221428Y-50357142D01*
X14721428Y-50785714D02*
X16221428Y-50785714D01*
X14721428Y-49857142D02*
X16221428Y-49857142D01*
X15507142Y-49857142D02*
X15507142Y-49000000D01*
X14721428Y-49000000D02*
X16221428Y-49000000D01*
D12*
X40609523Y-34304761D02*
X39942857Y-36304761D01*
X39276190Y-34304761D01*
X38228571Y-34304761D02*
X37847619Y-34304761D01*
X37657142Y-34400000D01*
X37466666Y-34590476D01*
X37371428Y-34971428D01*
X37371428Y-35638095D01*
X37466666Y-36019047D01*
X37657142Y-36209523D01*
X37847619Y-36304761D01*
X38228571Y-36304761D01*
X38419047Y-36209523D01*
X38609523Y-36019047D01*
X38704761Y-35638095D01*
X38704761Y-34971428D01*
X38609523Y-34590476D01*
X38419047Y-34400000D01*
X38228571Y-34304761D01*
X35371428Y-36304761D02*
X36038095Y-35352380D01*
X36514285Y-36304761D02*
X36514285Y-34304761D01*
X35752380Y-34304761D01*
X35561904Y-34400000D01*
X35466666Y-34495238D01*
X35371428Y-34685714D01*
X35371428Y-34971428D01*
X35466666Y-35161904D01*
X35561904Y-35257142D01*
X35752380Y-35352380D01*
X36514285Y-35352380D01*
X34133333Y-34304761D02*
X33752380Y-34304761D01*
X33561904Y-34400000D01*
X33371428Y-34590476D01*
X33276190Y-34971428D01*
X33276190Y-35638095D01*
X33371428Y-36019047D01*
X33561904Y-36209523D01*
X33752380Y-36304761D01*
X34133333Y-36304761D01*
X34323809Y-36209523D01*
X34514285Y-36019047D01*
X34609523Y-35638095D01*
X34609523Y-34971428D01*
X34514285Y-34590476D01*
X34323809Y-34400000D01*
X34133333Y-34304761D01*
X32419047Y-36304761D02*
X32419047Y-34304761D01*
X31276190Y-36304761D01*
X31276190Y-34304761D01*
D13*
%TO.C,J8*%
X21540000Y-37440000D02*
X27510000Y-37440000D01*
X27510000Y-37440000D02*
X27510000Y-47560000D01*
X27510000Y-47560000D02*
X21540000Y-47560000D01*
X21540000Y-47560000D02*
X21540000Y-37440000D01*
X21550000Y-40750000D02*
X22300000Y-40750000D01*
X22300000Y-40750000D02*
X22300000Y-44250000D01*
X22300000Y-44250000D02*
X21550000Y-44250000D01*
X21550000Y-44250000D02*
X21550000Y-40750000D01*
X21550000Y-37450000D02*
X22300000Y-37450000D01*
X22300000Y-37450000D02*
X22300000Y-39250000D01*
X22300000Y-39250000D02*
X21550000Y-39250000D01*
X21550000Y-39250000D02*
X21550000Y-37450000D01*
X21550000Y-45750000D02*
X22300000Y-45750000D01*
X22300000Y-45750000D02*
X22300000Y-47550000D01*
X22300000Y-47550000D02*
X21550000Y-47550000D01*
X21550000Y-47550000D02*
X21550000Y-45750000D01*
X23800000Y-37450000D02*
X23800000Y-38200000D01*
X23800000Y-38200000D02*
X26750000Y-38200000D01*
X26750000Y-38200000D02*
X26750000Y-42500000D01*
X23800000Y-47550000D02*
X23800000Y-46800000D01*
X23800000Y-46800000D02*
X26750000Y-46800000D01*
X26750000Y-46800000D02*
X26750000Y-42500000D01*
X21250000Y-38400000D02*
X21250000Y-37150000D01*
X21250000Y-37150000D02*
X22500000Y-37150000D01*
%TO.C,C21*%
X39960000Y-52810000D02*
X37210000Y-52810000D01*
X31440000Y-52810000D02*
X34190000Y-52810000D01*
X31440000Y-45354437D02*
X31440000Y-52810000D01*
X39960000Y-45354437D02*
X39960000Y-52810000D01*
X38895563Y-44290000D02*
X37210000Y-44290000D01*
X32504437Y-44290000D02*
X34190000Y-44290000D01*
X32504437Y-44290000D02*
X31440000Y-45354437D01*
X38895563Y-44290000D02*
X39960000Y-45354437D01*
X33190000Y-43050000D02*
X33190000Y-44050000D01*
X32690000Y-43550000D02*
X33690000Y-43550000D01*
%TO.C,J13*%
X51140000Y-40440000D02*
X57110000Y-40440000D01*
X57110000Y-40440000D02*
X57110000Y-48060000D01*
X57110000Y-48060000D02*
X51140000Y-48060000D01*
X51140000Y-48060000D02*
X51140000Y-40440000D01*
X51150000Y-43750000D02*
X51900000Y-43750000D01*
X51900000Y-43750000D02*
X51900000Y-44750000D01*
X51900000Y-44750000D02*
X51150000Y-44750000D01*
X51150000Y-44750000D02*
X51150000Y-43750000D01*
X51150000Y-40450000D02*
X51900000Y-40450000D01*
X51900000Y-40450000D02*
X51900000Y-42250000D01*
X51900000Y-42250000D02*
X51150000Y-42250000D01*
X51150000Y-42250000D02*
X51150000Y-40450000D01*
X51150000Y-46250000D02*
X51900000Y-46250000D01*
X51900000Y-46250000D02*
X51900000Y-48050000D01*
X51900000Y-48050000D02*
X51150000Y-48050000D01*
X51150000Y-48050000D02*
X51150000Y-46250000D01*
X53400000Y-40450000D02*
X53400000Y-41200000D01*
X53400000Y-41200000D02*
X56350000Y-41200000D01*
X56350000Y-41200000D02*
X56350000Y-44250000D01*
X53400000Y-48050000D02*
X53400000Y-47300000D01*
X53400000Y-47300000D02*
X56350000Y-47300000D01*
X56350000Y-47300000D02*
X56350000Y-44250000D01*
X50850000Y-41400000D02*
X50850000Y-40150000D01*
X50850000Y-40150000D02*
X52100000Y-40150000D01*
%TO.C,J1*%
X37800000Y-12600000D02*
X47200000Y-12600000D01*
X47200000Y-18400000D02*
X47200000Y-16400000D01*
X47200000Y-14500000D02*
X47200000Y-12600000D01*
X37800000Y-18400000D02*
X37800000Y-16400000D01*
X37800000Y-14500000D02*
X37800000Y-12600000D01*
D12*
%TO.C,REF\u002A\u002A*%
X36000000Y-30540000D02*
X34446980Y-30540000D01*
X34446980Y-30540000D02*
X32257650Y-27193690D01*
X32257650Y-27193690D02*
X33810650Y-27193690D01*
X33810650Y-27193690D02*
X33810650Y-27193690D01*
X33021100Y-23847380D02*
X34574110Y-23847380D01*
X34574110Y-23847380D02*
X34574110Y-23847380D01*
X37526850Y-23847380D02*
X39716190Y-27193690D01*
X39716190Y-27193690D02*
X38163190Y-27193690D01*
X38163190Y-27193690D02*
X35973850Y-23847380D01*
X35973850Y-23847380D02*
X37526850Y-23847380D01*
X37526850Y-23847380D02*
X37526850Y-23847380D01*
X33810650Y-27193690D02*
X36000000Y-30540000D01*
X38952750Y-30540000D02*
X37399730Y-30540000D01*
X37399730Y-30540000D02*
X33021100Y-23847380D01*
X41316190Y-30269480D02*
X41316190Y-24117900D01*
X30661454Y-24117900D02*
X30661454Y-30269480D01*
X30661454Y-30269480D02*
X35988870Y-33345270D01*
X35988870Y-33345270D02*
X41316190Y-30269480D01*
X35988870Y-33345270D02*
X35988870Y-33345270D01*
X34574110Y-23847380D02*
X38952750Y-30540000D01*
X41316190Y-24117900D02*
X35988870Y-21042105D01*
X35988870Y-21042105D02*
X30661454Y-24117900D01*
D14*
G36*
X33810650Y-27193690D02*
G01*
X32257650Y-27193690D01*
X34446980Y-30540000D01*
X36000000Y-30540000D01*
X33810650Y-27193690D01*
G37*
X33810650Y-27193690D02*
X32257650Y-27193690D01*
X34446980Y-30540000D01*
X36000000Y-30540000D01*
X33810650Y-27193690D01*
G36*
X34574110Y-23847380D02*
G01*
X33021100Y-23847380D01*
X37399730Y-30540000D01*
X38952750Y-30540000D01*
X34574110Y-23847380D01*
G37*
X34574110Y-23847380D02*
X33021100Y-23847380D01*
X37399730Y-30540000D01*
X38952750Y-30540000D01*
X34574110Y-23847380D01*
G36*
X37526850Y-23847380D02*
G01*
X35973850Y-23847380D01*
X38163190Y-27193690D01*
X39716190Y-27193690D01*
X37526850Y-23847380D01*
G37*
X37526850Y-23847380D02*
X35973850Y-23847380D01*
X38163190Y-27193690D01*
X39716190Y-27193690D01*
X37526850Y-23847380D01*
D13*
%TO.C,J14*%
X14540000Y-29040000D02*
X20510000Y-29040000D01*
X20510000Y-29040000D02*
X20510000Y-39160000D01*
X20510000Y-39160000D02*
X14540000Y-39160000D01*
X14540000Y-39160000D02*
X14540000Y-29040000D01*
X14550000Y-32350000D02*
X15300000Y-32350000D01*
X15300000Y-32350000D02*
X15300000Y-35850000D01*
X15300000Y-35850000D02*
X14550000Y-35850000D01*
X14550000Y-35850000D02*
X14550000Y-32350000D01*
X14550000Y-29050000D02*
X15300000Y-29050000D01*
X15300000Y-29050000D02*
X15300000Y-30850000D01*
X15300000Y-30850000D02*
X14550000Y-30850000D01*
X14550000Y-30850000D02*
X14550000Y-29050000D01*
X14550000Y-37350000D02*
X15300000Y-37350000D01*
X15300000Y-37350000D02*
X15300000Y-39150000D01*
X15300000Y-39150000D02*
X14550000Y-39150000D01*
X14550000Y-39150000D02*
X14550000Y-37350000D01*
X16800000Y-29050000D02*
X16800000Y-29800000D01*
X16800000Y-29800000D02*
X19750000Y-29800000D01*
X19750000Y-29800000D02*
X19750000Y-34100000D01*
X16800000Y-39150000D02*
X16800000Y-38400000D01*
X16800000Y-38400000D02*
X19750000Y-38400000D01*
X19750000Y-38400000D02*
X19750000Y-34100000D01*
X14250000Y-30000000D02*
X14250000Y-28750000D01*
X14250000Y-28750000D02*
X15500000Y-28750000D01*
%TO.C,J12*%
X51040000Y-31940000D02*
X57010000Y-31940000D01*
X57010000Y-31940000D02*
X57010000Y-39560000D01*
X57010000Y-39560000D02*
X51040000Y-39560000D01*
X51040000Y-39560000D02*
X51040000Y-31940000D01*
X51050000Y-35250000D02*
X51800000Y-35250000D01*
X51800000Y-35250000D02*
X51800000Y-36250000D01*
X51800000Y-36250000D02*
X51050000Y-36250000D01*
X51050000Y-36250000D02*
X51050000Y-35250000D01*
X51050000Y-31950000D02*
X51800000Y-31950000D01*
X51800000Y-31950000D02*
X51800000Y-33750000D01*
X51800000Y-33750000D02*
X51050000Y-33750000D01*
X51050000Y-33750000D02*
X51050000Y-31950000D01*
X51050000Y-37750000D02*
X51800000Y-37750000D01*
X51800000Y-37750000D02*
X51800000Y-39550000D01*
X51800000Y-39550000D02*
X51050000Y-39550000D01*
X51050000Y-39550000D02*
X51050000Y-37750000D01*
X53300000Y-31950000D02*
X53300000Y-32700000D01*
X53300000Y-32700000D02*
X56250000Y-32700000D01*
X56250000Y-32700000D02*
X56250000Y-35750000D01*
X53300000Y-39550000D02*
X53300000Y-38800000D01*
X53300000Y-38800000D02*
X56250000Y-38800000D01*
X56250000Y-38800000D02*
X56250000Y-35750000D01*
X50750000Y-32900000D02*
X50750000Y-31650000D01*
X50750000Y-31650000D02*
X52000000Y-31650000D01*
%TO.C,J11*%
X51040000Y-23440000D02*
X57010000Y-23440000D01*
X57010000Y-23440000D02*
X57010000Y-31060000D01*
X57010000Y-31060000D02*
X51040000Y-31060000D01*
X51040000Y-31060000D02*
X51040000Y-23440000D01*
X51050000Y-26750000D02*
X51800000Y-26750000D01*
X51800000Y-26750000D02*
X51800000Y-27750000D01*
X51800000Y-27750000D02*
X51050000Y-27750000D01*
X51050000Y-27750000D02*
X51050000Y-26750000D01*
X51050000Y-23450000D02*
X51800000Y-23450000D01*
X51800000Y-23450000D02*
X51800000Y-25250000D01*
X51800000Y-25250000D02*
X51050000Y-25250000D01*
X51050000Y-25250000D02*
X51050000Y-23450000D01*
X51050000Y-29250000D02*
X51800000Y-29250000D01*
X51800000Y-29250000D02*
X51800000Y-31050000D01*
X51800000Y-31050000D02*
X51050000Y-31050000D01*
X51050000Y-31050000D02*
X51050000Y-29250000D01*
X53300000Y-23450000D02*
X53300000Y-24200000D01*
X53300000Y-24200000D02*
X56250000Y-24200000D01*
X56250000Y-24200000D02*
X56250000Y-27250000D01*
X53300000Y-31050000D02*
X53300000Y-30300000D01*
X53300000Y-30300000D02*
X56250000Y-30300000D01*
X56250000Y-30300000D02*
X56250000Y-27250000D01*
X50750000Y-24400000D02*
X50750000Y-23150000D01*
X50750000Y-23150000D02*
X52000000Y-23150000D01*
%TO.C,J10*%
X23440000Y-20460000D02*
X23440000Y-14490000D01*
X23440000Y-14490000D02*
X36060000Y-14490000D01*
X36060000Y-14490000D02*
X36060000Y-20460000D01*
X36060000Y-20460000D02*
X23440000Y-20460000D01*
X26750000Y-20450000D02*
X26750000Y-19700000D01*
X26750000Y-19700000D02*
X32750000Y-19700000D01*
X32750000Y-19700000D02*
X32750000Y-20450000D01*
X32750000Y-20450000D02*
X26750000Y-20450000D01*
X23450000Y-20450000D02*
X23450000Y-19700000D01*
X23450000Y-19700000D02*
X25250000Y-19700000D01*
X25250000Y-19700000D02*
X25250000Y-20450000D01*
X25250000Y-20450000D02*
X23450000Y-20450000D01*
X34250000Y-20450000D02*
X34250000Y-19700000D01*
X34250000Y-19700000D02*
X36050000Y-19700000D01*
X36050000Y-19700000D02*
X36050000Y-20450000D01*
X36050000Y-20450000D02*
X34250000Y-20450000D01*
X23450000Y-18200000D02*
X24200000Y-18200000D01*
X24200000Y-18200000D02*
X24200000Y-15250000D01*
X24200000Y-15250000D02*
X29750000Y-15250000D01*
X36050000Y-18200000D02*
X35300000Y-18200000D01*
X35300000Y-18200000D02*
X35300000Y-15250000D01*
X35300000Y-15250000D02*
X29750000Y-15250000D01*
X24400000Y-20750000D02*
X23150000Y-20750000D01*
X23150000Y-20750000D02*
X23150000Y-19500000D01*
%TO.C,J9*%
X14540000Y-39940000D02*
X20510000Y-39940000D01*
X20510000Y-39940000D02*
X20510000Y-47560000D01*
X20510000Y-47560000D02*
X14540000Y-47560000D01*
X14540000Y-47560000D02*
X14540000Y-39940000D01*
X14550000Y-43250000D02*
X15300000Y-43250000D01*
X15300000Y-43250000D02*
X15300000Y-44250000D01*
X15300000Y-44250000D02*
X14550000Y-44250000D01*
X14550000Y-44250000D02*
X14550000Y-43250000D01*
X14550000Y-39950000D02*
X15300000Y-39950000D01*
X15300000Y-39950000D02*
X15300000Y-41750000D01*
X15300000Y-41750000D02*
X14550000Y-41750000D01*
X14550000Y-41750000D02*
X14550000Y-39950000D01*
X14550000Y-45750000D02*
X15300000Y-45750000D01*
X15300000Y-45750000D02*
X15300000Y-47550000D01*
X15300000Y-47550000D02*
X14550000Y-47550000D01*
X14550000Y-47550000D02*
X14550000Y-45750000D01*
X16800000Y-39950000D02*
X16800000Y-40700000D01*
X16800000Y-40700000D02*
X19750000Y-40700000D01*
X19750000Y-40700000D02*
X19750000Y-43750000D01*
X16800000Y-47550000D02*
X16800000Y-46800000D01*
X16800000Y-46800000D02*
X19750000Y-46800000D01*
X19750000Y-46800000D02*
X19750000Y-43750000D01*
X14250000Y-40900000D02*
X14250000Y-39650000D01*
X14250000Y-39650000D02*
X15500000Y-39650000D01*
%TO.C,J7*%
X21540000Y-26440000D02*
X27510000Y-26440000D01*
X27510000Y-26440000D02*
X27510000Y-36560000D01*
X27510000Y-36560000D02*
X21540000Y-36560000D01*
X21540000Y-36560000D02*
X21540000Y-26440000D01*
X21550000Y-29750000D02*
X22300000Y-29750000D01*
X22300000Y-29750000D02*
X22300000Y-33250000D01*
X22300000Y-33250000D02*
X21550000Y-33250000D01*
X21550000Y-33250000D02*
X21550000Y-29750000D01*
X21550000Y-26450000D02*
X22300000Y-26450000D01*
X22300000Y-26450000D02*
X22300000Y-28250000D01*
X22300000Y-28250000D02*
X21550000Y-28250000D01*
X21550000Y-28250000D02*
X21550000Y-26450000D01*
X21550000Y-34750000D02*
X22300000Y-34750000D01*
X22300000Y-34750000D02*
X22300000Y-36550000D01*
X22300000Y-36550000D02*
X21550000Y-36550000D01*
X21550000Y-36550000D02*
X21550000Y-34750000D01*
X23800000Y-26450000D02*
X23800000Y-27200000D01*
X23800000Y-27200000D02*
X26750000Y-27200000D01*
X26750000Y-27200000D02*
X26750000Y-31500000D01*
X23800000Y-36550000D02*
X23800000Y-35800000D01*
X23800000Y-35800000D02*
X26750000Y-35800000D01*
X26750000Y-35800000D02*
X26750000Y-31500000D01*
X21250000Y-27400000D02*
X21250000Y-26150000D01*
X21250000Y-26150000D02*
X22500000Y-26150000D01*
%TO.C,J5*%
X44670000Y-23590000D02*
X49870000Y-23590000D01*
X44670000Y-28730000D02*
X44670000Y-23590000D01*
X49870000Y-31330000D02*
X49870000Y-23590000D01*
X44670000Y-28730000D02*
X47270000Y-28730000D01*
X47270000Y-28730000D02*
X47270000Y-31330000D01*
X47270000Y-31330000D02*
X49870000Y-31330000D01*
X44670000Y-30000000D02*
X44670000Y-31330000D01*
X44670000Y-31330000D02*
X46000000Y-31330000D01*
%TO.C,J2*%
X44140000Y-35040000D02*
X50110000Y-35040000D01*
X50110000Y-35040000D02*
X50110000Y-47660000D01*
X50110000Y-47660000D02*
X44140000Y-47660000D01*
X44140000Y-47660000D02*
X44140000Y-35040000D01*
X44150000Y-38350000D02*
X44900000Y-38350000D01*
X44900000Y-38350000D02*
X44900000Y-44350000D01*
X44900000Y-44350000D02*
X44150000Y-44350000D01*
X44150000Y-44350000D02*
X44150000Y-38350000D01*
X44150000Y-35050000D02*
X44900000Y-35050000D01*
X44900000Y-35050000D02*
X44900000Y-36850000D01*
X44900000Y-36850000D02*
X44150000Y-36850000D01*
X44150000Y-36850000D02*
X44150000Y-35050000D01*
X44150000Y-45850000D02*
X44900000Y-45850000D01*
X44900000Y-45850000D02*
X44900000Y-47650000D01*
X44900000Y-47650000D02*
X44150000Y-47650000D01*
X44150000Y-47650000D02*
X44150000Y-45850000D01*
X46400000Y-35050000D02*
X46400000Y-35800000D01*
X46400000Y-35800000D02*
X49350000Y-35800000D01*
X49350000Y-35800000D02*
X49350000Y-41350000D01*
X46400000Y-47650000D02*
X46400000Y-46900000D01*
X46400000Y-46900000D02*
X49350000Y-46900000D01*
X49350000Y-46900000D02*
X49350000Y-41350000D01*
X43850000Y-36000000D02*
X43850000Y-34750000D01*
X43850000Y-34750000D02*
X45100000Y-34750000D01*
%TO.C,J13*%
D11*
X49502380Y-43440476D02*
X50216666Y-43440476D01*
X50359523Y-43392857D01*
X50454761Y-43297619D01*
X50502380Y-43154761D01*
X50502380Y-43059523D01*
X50502380Y-44440476D02*
X50502380Y-43869047D01*
X50502380Y-44154761D02*
X49502380Y-44154761D01*
X49645238Y-44059523D01*
X49740476Y-43964285D01*
X49788095Y-43869047D01*
X49502380Y-44773809D02*
X49502380Y-45392857D01*
X49883333Y-45059523D01*
X49883333Y-45202380D01*
X49930952Y-45297619D01*
X49978571Y-45345238D01*
X50073809Y-45392857D01*
X50311904Y-45392857D01*
X50407142Y-45345238D01*
X50454761Y-45297619D01*
X50502380Y-45202380D01*
X50502380Y-44916666D01*
X50454761Y-44821428D01*
X50407142Y-44773809D01*
%TO.C,J1*%
X42833333Y-21597380D02*
X42833333Y-22311666D01*
X42880952Y-22454523D01*
X42976190Y-22549761D01*
X43119047Y-22597380D01*
X43214285Y-22597380D01*
X41833333Y-22597380D02*
X42404761Y-22597380D01*
X42119047Y-22597380D02*
X42119047Y-21597380D01*
X42214285Y-21740238D01*
X42309523Y-21835476D01*
X42404761Y-21883095D01*
%TD*%
M02*
