%TF.GenerationSoftware,KiCad,Pcbnew,(5.1.9-0-10_14)*%
%TF.CreationDate,2021-06-30T10:16:08+02:00*%
%TF.ProjectId,turbocan,74757262-6f63-4616-9e2e-6b696361645f,rev?*%
%TF.SameCoordinates,Original*%
%TF.FileFunction,Legend,Top*%
%TF.FilePolarity,Positive*%
%FSLAX46Y46*%
G04 Gerber Fmt 4.6, Leading zero omitted, Abs format (unit mm)*
G04 Created by KiCad (PCBNEW (5.1.9-0-10_14)) date 2021-06-30 10:16:08*
%MOMM*%
%LPD*%
G01*
G04 APERTURE LIST*
%ADD10C,0.150000*%
%ADD11C,0.120000*%
%ADD12C,0.200000*%
%ADD13C,0.100000*%
G04 APERTURE END LIST*
D10*
X23514285Y-50652380D02*
X23514285Y-49652380D01*
X23847619Y-50366666D01*
X24180952Y-49652380D01*
X24180952Y-50652380D01*
X24609523Y-50604761D02*
X24752380Y-50652380D01*
X24990476Y-50652380D01*
X25085714Y-50604761D01*
X25133333Y-50557142D01*
X25180952Y-50461904D01*
X25180952Y-50366666D01*
X25133333Y-50271428D01*
X25085714Y-50223809D01*
X24990476Y-50176190D01*
X24800000Y-50128571D01*
X24704761Y-50080952D01*
X24657142Y-50033333D01*
X24609523Y-49938095D01*
X24609523Y-49842857D01*
X24657142Y-49747619D01*
X24704761Y-49700000D01*
X24800000Y-49652380D01*
X25038095Y-49652380D01*
X25180952Y-49700000D01*
X25561904Y-49747619D02*
X25609523Y-49700000D01*
X25704761Y-49652380D01*
X25942857Y-49652380D01*
X26038095Y-49700000D01*
X26085714Y-49747619D01*
X26133333Y-49842857D01*
X26133333Y-49938095D01*
X26085714Y-50080952D01*
X25514285Y-50652380D01*
X26133333Y-50652380D01*
X20733333Y-48004761D02*
X20876190Y-48052380D01*
X21114285Y-48052380D01*
X21209523Y-48004761D01*
X21257142Y-47957142D01*
X21304761Y-47861904D01*
X21304761Y-47766666D01*
X21257142Y-47671428D01*
X21209523Y-47623809D01*
X21114285Y-47576190D01*
X20923809Y-47528571D01*
X20828571Y-47480952D01*
X20780952Y-47433333D01*
X20733333Y-47338095D01*
X20733333Y-47242857D01*
X20780952Y-47147619D01*
X20828571Y-47100000D01*
X20923809Y-47052380D01*
X21161904Y-47052380D01*
X21304761Y-47100000D01*
X21733333Y-48052380D02*
X21733333Y-47052380D01*
X22114285Y-47052380D01*
X22209523Y-47100000D01*
X22257142Y-47147619D01*
X22304761Y-47242857D01*
X22304761Y-47385714D01*
X22257142Y-47480952D01*
X22209523Y-47528571D01*
X22114285Y-47576190D01*
X21733333Y-47576190D01*
X23304761Y-48052380D02*
X22971428Y-47576190D01*
X22733333Y-48052380D02*
X22733333Y-47052380D01*
X23114285Y-47052380D01*
X23209523Y-47100000D01*
X23257142Y-47147619D01*
X23304761Y-47242857D01*
X23304761Y-47385714D01*
X23257142Y-47480952D01*
X23209523Y-47528571D01*
X23114285Y-47576190D01*
X22733333Y-47576190D01*
X23733333Y-47528571D02*
X24066666Y-47528571D01*
X24209523Y-48052380D02*
X23733333Y-48052380D01*
X23733333Y-47052380D01*
X24209523Y-47052380D01*
X24590476Y-47766666D02*
X25066666Y-47766666D01*
X24495238Y-48052380D02*
X24828571Y-47052380D01*
X25161904Y-48052380D01*
X25495238Y-48052380D02*
X25495238Y-47052380D01*
X25733333Y-47052380D01*
X25876190Y-47100000D01*
X25971428Y-47195238D01*
X26019047Y-47290476D01*
X26066666Y-47480952D01*
X26066666Y-47623809D01*
X26019047Y-47814285D01*
X25971428Y-47909523D01*
X25876190Y-48004761D01*
X25733333Y-48052380D01*
X25495238Y-48052380D01*
X23514285Y-53252380D02*
X23514285Y-52252380D01*
X23847619Y-52966666D01*
X24180952Y-52252380D01*
X24180952Y-53252380D01*
X24609523Y-53204761D02*
X24752380Y-53252380D01*
X24990476Y-53252380D01*
X25085714Y-53204761D01*
X25133333Y-53157142D01*
X25180952Y-53061904D01*
X25180952Y-52966666D01*
X25133333Y-52871428D01*
X25085714Y-52823809D01*
X24990476Y-52776190D01*
X24800000Y-52728571D01*
X24704761Y-52680952D01*
X24657142Y-52633333D01*
X24609523Y-52538095D01*
X24609523Y-52442857D01*
X24657142Y-52347619D01*
X24704761Y-52300000D01*
X24800000Y-52252380D01*
X25038095Y-52252380D01*
X25180952Y-52300000D01*
X26133333Y-53252380D02*
X25561904Y-53252380D01*
X25847619Y-53252380D02*
X25847619Y-52252380D01*
X25752380Y-52395238D01*
X25657142Y-52490476D01*
X25561904Y-52538095D01*
X23690476Y-15210714D02*
X23652380Y-15248809D01*
X23538095Y-15286904D01*
X23461904Y-15286904D01*
X23347619Y-15248809D01*
X23271428Y-15172619D01*
X23233333Y-15096428D01*
X23195238Y-14944047D01*
X23195238Y-14829761D01*
X23233333Y-14677380D01*
X23271428Y-14601190D01*
X23347619Y-14525000D01*
X23461904Y-14486904D01*
X23538095Y-14486904D01*
X23652380Y-14525000D01*
X23690476Y-14563095D01*
X23995238Y-15058333D02*
X24376190Y-15058333D01*
X23919047Y-15286904D02*
X24185714Y-14486904D01*
X24452380Y-15286904D01*
X24719047Y-15286904D02*
X24719047Y-14486904D01*
X25176190Y-15286904D01*
X25176190Y-14486904D01*
X22452380Y-15836904D02*
X22909523Y-15836904D01*
X22680952Y-16636904D02*
X22680952Y-15836904D01*
X23176190Y-16217857D02*
X23442857Y-16217857D01*
X23557142Y-16636904D02*
X23176190Y-16636904D01*
X23176190Y-15836904D01*
X23557142Y-15836904D01*
X24357142Y-16636904D02*
X24090476Y-16255952D01*
X23900000Y-16636904D02*
X23900000Y-15836904D01*
X24204761Y-15836904D01*
X24280952Y-15875000D01*
X24319047Y-15913095D01*
X24357142Y-15989285D01*
X24357142Y-16103571D01*
X24319047Y-16179761D01*
X24280952Y-16217857D01*
X24204761Y-16255952D01*
X23900000Y-16255952D01*
X24700000Y-16636904D02*
X24700000Y-15836904D01*
X24966666Y-16408333D01*
X25233333Y-15836904D01*
X25233333Y-16636904D01*
X16666666Y-54752380D02*
X16666666Y-55466666D01*
X16619047Y-55609523D01*
X16523809Y-55704761D01*
X16380952Y-55752380D01*
X16285714Y-55752380D01*
X17619047Y-55752380D02*
X17142857Y-55752380D01*
X17142857Y-54752380D01*
X18523809Y-55657142D02*
X18476190Y-55704761D01*
X18333333Y-55752380D01*
X18238095Y-55752380D01*
X18095238Y-55704761D01*
X18000000Y-55609523D01*
X17952380Y-55514285D01*
X17904761Y-55323809D01*
X17904761Y-55180952D01*
X17952380Y-54990476D01*
X18000000Y-54895238D01*
X18095238Y-54800000D01*
X18238095Y-54752380D01*
X18333333Y-54752380D01*
X18476190Y-54800000D01*
X18523809Y-54847619D01*
X19238095Y-54752380D02*
X19238095Y-55466666D01*
X19190476Y-55609523D01*
X19095238Y-55704761D01*
X18952380Y-55752380D01*
X18857142Y-55752380D01*
X20190476Y-55752380D02*
X19714285Y-55752380D01*
X19714285Y-54752380D01*
X21095238Y-55657142D02*
X21047619Y-55704761D01*
X20904761Y-55752380D01*
X20809523Y-55752380D01*
X20666666Y-55704761D01*
X20571428Y-55609523D01*
X20523809Y-55514285D01*
X20476190Y-55323809D01*
X20476190Y-55180952D01*
X20523809Y-54990476D01*
X20571428Y-54895238D01*
X20666666Y-54800000D01*
X20809523Y-54752380D01*
X20904761Y-54752380D01*
X21047619Y-54800000D01*
X21095238Y-54847619D01*
X21809523Y-54752380D02*
X21809523Y-55466666D01*
X21761904Y-55609523D01*
X21666666Y-55704761D01*
X21523809Y-55752380D01*
X21428571Y-55752380D01*
X22761904Y-55752380D02*
X22285714Y-55752380D01*
X22285714Y-54752380D01*
X23666666Y-55657142D02*
X23619047Y-55704761D01*
X23476190Y-55752380D01*
X23380952Y-55752380D01*
X23238095Y-55704761D01*
X23142857Y-55609523D01*
X23095238Y-55514285D01*
X23047619Y-55323809D01*
X23047619Y-55180952D01*
X23095238Y-54990476D01*
X23142857Y-54895238D01*
X23238095Y-54800000D01*
X23380952Y-54752380D01*
X23476190Y-54752380D01*
X23619047Y-54800000D01*
X23666666Y-54847619D01*
D11*
%TO.C,R31*%
X26620000Y-47446359D02*
X26620000Y-47753641D01*
X27380000Y-47446359D02*
X27380000Y-47753641D01*
%TO.C,R30*%
X26620000Y-50046359D02*
X26620000Y-50353641D01*
X27380000Y-50046359D02*
X27380000Y-50353641D01*
%TO.C,R29*%
X26620000Y-52646359D02*
X26620000Y-52953641D01*
X27380000Y-52646359D02*
X27380000Y-52953641D01*
%TO.C,U7*%
X51790000Y-44600000D02*
X51790000Y-46100000D01*
X48570000Y-43100000D02*
X48570000Y-46100000D01*
D12*
%TO.C,L1*%
X39580500Y-43584500D02*
X32280500Y-43584500D01*
X39580500Y-42284500D02*
X39580500Y-43584500D01*
X32280500Y-43584500D02*
X32280500Y-42284500D01*
X39580500Y-36784500D02*
X39580500Y-38084500D01*
X32280500Y-36784500D02*
X39580500Y-36784500D01*
X32280500Y-38084500D02*
X32280500Y-36784500D01*
D11*
%TO.C,L3*%
X29349622Y-27540000D02*
X28550378Y-27540000D01*
X29349622Y-28660000D02*
X28550378Y-28660000D01*
%TO.C,L2*%
X29349622Y-31040000D02*
X28550378Y-31040000D01*
X29349622Y-32160000D02*
X28550378Y-32160000D01*
%TO.C,C23*%
X27707836Y-29440000D02*
X27492164Y-29440000D01*
X27707836Y-30160000D02*
X27492164Y-30160000D01*
%TO.C,C22*%
X32692164Y-22510000D02*
X32907836Y-22510000D01*
X32692164Y-21790000D02*
X32907836Y-21790000D01*
%TO.C,R28*%
X19403641Y-31870000D02*
X19096359Y-31870000D01*
X19403641Y-32630000D02*
X19096359Y-32630000D01*
%TO.C,R27*%
X19403641Y-34370000D02*
X19096359Y-34370000D01*
X19403641Y-35130000D02*
X19096359Y-35130000D01*
%TO.C,C20*%
X19142164Y-33860000D02*
X19357836Y-33860000D01*
X19142164Y-33140000D02*
X19357836Y-33140000D01*
%TO.C,R26*%
X26972936Y-16335000D02*
X27427064Y-16335000D01*
X26972936Y-14865000D02*
X27427064Y-14865000D01*
%TO.C,R9*%
X18865000Y-41572936D02*
X18865000Y-42027064D01*
X20335000Y-41572936D02*
X20335000Y-42027064D01*
%TO.C,C11*%
X21907836Y-43140000D02*
X21692164Y-43140000D01*
X21907836Y-43860000D02*
X21692164Y-43860000D01*
%TO.C,R13*%
X21646359Y-42630000D02*
X21953641Y-42630000D01*
X21646359Y-41870000D02*
X21953641Y-41870000D01*
%TO.C,R8*%
X21646359Y-45130000D02*
X21953641Y-45130000D01*
X21646359Y-44370000D02*
X21953641Y-44370000D01*
%TO.C,R15*%
X54880000Y-40653641D02*
X54880000Y-40346359D01*
X54120000Y-40653641D02*
X54120000Y-40346359D01*
%TO.C,R18*%
X49120000Y-40346359D02*
X49120000Y-40653641D01*
X49880000Y-40346359D02*
X49880000Y-40653641D01*
%TO.C,U6*%
X51240000Y-38420000D02*
X52700000Y-38420000D01*
X51240000Y-41580000D02*
X53400000Y-41580000D01*
X51240000Y-41580000D02*
X51240000Y-40650000D01*
X51240000Y-38420000D02*
X51240000Y-39350000D01*
%TO.C,R10*%
X39646359Y-46380000D02*
X39953641Y-46380000D01*
X39646359Y-45620000D02*
X39953641Y-45620000D01*
%TO.C,R25*%
X40680000Y-43353641D02*
X40680000Y-43046359D01*
X39920000Y-43353641D02*
X39920000Y-43046359D01*
%TO.C,R2*%
X43353641Y-18420000D02*
X43046359Y-18420000D01*
X43353641Y-19180000D02*
X43046359Y-19180000D01*
%TO.C,C1*%
X40935000Y-16461252D02*
X40935000Y-15938748D01*
X39465000Y-16461252D02*
X39465000Y-15938748D01*
%TO.C,U1*%
X43960000Y-17780000D02*
X42500000Y-17780000D01*
X43960000Y-14620000D02*
X41800000Y-14620000D01*
X43960000Y-14620000D02*
X43960000Y-15550000D01*
X43960000Y-17780000D02*
X43960000Y-16850000D01*
D13*
%TO.C,U9*%
X50400000Y-35600000D02*
X50200000Y-35600000D01*
X50400000Y-35600000D02*
X50400000Y-35300000D01*
X50400000Y-32400000D02*
X50400000Y-32700000D01*
X50400000Y-32400000D02*
X50200000Y-32400000D01*
X45200000Y-32400000D02*
X45200000Y-32700000D01*
X45200000Y-32400000D02*
X45400000Y-32400000D01*
X45400000Y-35400000D02*
X45400000Y-35600000D01*
X45200000Y-35200000D02*
X45400000Y-35400000D01*
X45200000Y-34900000D02*
X45200000Y-35200000D01*
D11*
%TO.C,R20*%
X32820000Y-23846359D02*
X32820000Y-24153641D01*
X33580000Y-23846359D02*
X33580000Y-24153641D01*
%TO.C,C17*%
X32360000Y-24107836D02*
X32360000Y-23892164D01*
X31640000Y-24107836D02*
X31640000Y-23892164D01*
%TO.C,D4*%
X18500000Y-35650000D02*
X22400000Y-35650000D01*
X18500000Y-37650000D02*
X22400000Y-37650000D01*
X18500000Y-35650000D02*
X18500000Y-37650000D01*
%TO.C,C5*%
X45138748Y-56135000D02*
X45661252Y-56135000D01*
X45138748Y-54665000D02*
X45661252Y-54665000D01*
%TO.C,C15*%
X41335000Y-34861252D02*
X41335000Y-34338748D01*
X39865000Y-34861252D02*
X39865000Y-34338748D01*
%TO.C,C14*%
X39135000Y-34861252D02*
X39135000Y-34338748D01*
X37665000Y-34861252D02*
X37665000Y-34338748D01*
%TO.C,C13*%
X36935000Y-34861252D02*
X36935000Y-34338748D01*
X35465000Y-34861252D02*
X35465000Y-34338748D01*
%TO.C,D6*%
X52485000Y-14265000D02*
X50200000Y-14265000D01*
X52485000Y-15735000D02*
X52485000Y-14265000D01*
X50200000Y-15735000D02*
X52485000Y-15735000D01*
%TO.C,D5*%
X18515000Y-15735000D02*
X20800000Y-15735000D01*
X18515000Y-14265000D02*
X18515000Y-15735000D01*
X20800000Y-14265000D02*
X18515000Y-14265000D01*
%TO.C,R24*%
X53846359Y-15380000D02*
X54153641Y-15380000D01*
X53846359Y-14620000D02*
X54153641Y-14620000D01*
%TO.C,R23*%
X17153641Y-14620000D02*
X16846359Y-14620000D01*
X17153641Y-15380000D02*
X16846359Y-15380000D01*
%TO.C,R22*%
X39246359Y-32580000D02*
X39553641Y-32580000D01*
X39246359Y-31820000D02*
X39553641Y-31820000D01*
%TO.C,R21*%
X36630000Y-20043641D02*
X36630000Y-19736359D01*
X35870000Y-20043641D02*
X35870000Y-19736359D01*
%TO.C,R19*%
X44446359Y-51180000D02*
X44753641Y-51180000D01*
X44446359Y-50420000D02*
X44753641Y-50420000D01*
%TO.C,R17*%
X51110000Y-28356359D02*
X51110000Y-28663641D01*
X51870000Y-28356359D02*
X51870000Y-28663641D01*
%TO.C,R16*%
X44753641Y-51620000D02*
X44446359Y-51620000D01*
X44753641Y-52380000D02*
X44446359Y-52380000D01*
%TO.C,R14*%
X51120000Y-34346359D02*
X51120000Y-34653641D01*
X51880000Y-34346359D02*
X51880000Y-34653641D01*
%TO.C,R12*%
X21653641Y-31870000D02*
X21346359Y-31870000D01*
X21653641Y-32630000D02*
X21346359Y-32630000D01*
%TO.C,R11*%
X39953641Y-44420000D02*
X39646359Y-44420000D01*
X39953641Y-45180000D02*
X39646359Y-45180000D01*
%TO.C,R7*%
X21346359Y-35130000D02*
X21653641Y-35130000D01*
X21346359Y-34370000D02*
X21653641Y-34370000D01*
%TO.C,R6*%
X35880000Y-45643641D02*
X35880000Y-45336359D01*
X35120000Y-45643641D02*
X35120000Y-45336359D01*
%TO.C,R5*%
X38620000Y-55346359D02*
X38620000Y-55653641D01*
X39380000Y-55346359D02*
X39380000Y-55653641D01*
%TO.C,R4*%
X38130000Y-55653641D02*
X38130000Y-55346359D01*
X37370000Y-55653641D02*
X37370000Y-55346359D01*
%TO.C,R3*%
X16446359Y-29930000D02*
X16753641Y-29930000D01*
X16446359Y-29170000D02*
X16753641Y-29170000D01*
%TO.C,R1*%
X41353641Y-18420000D02*
X41046359Y-18420000D01*
X41353641Y-19180000D02*
X41046359Y-19180000D01*
%TO.C,C19*%
X29857836Y-29440000D02*
X29642164Y-29440000D01*
X29857836Y-30160000D02*
X29642164Y-30160000D01*
%TO.C,C18*%
X26660000Y-25307836D02*
X26660000Y-25092164D01*
X25940000Y-25307836D02*
X25940000Y-25092164D01*
%TO.C,C16*%
X25940000Y-23092164D02*
X25940000Y-23307836D01*
X26660000Y-23092164D02*
X26660000Y-23307836D01*
%TO.C,C12*%
X19240000Y-44692164D02*
X19240000Y-44907836D01*
X19960000Y-44692164D02*
X19960000Y-44907836D01*
%TO.C,C10*%
X21607836Y-33140000D02*
X21392164Y-33140000D01*
X21607836Y-33860000D02*
X21392164Y-33860000D01*
%TO.C,C9*%
X34340000Y-48292164D02*
X34340000Y-48507836D01*
X35060000Y-48292164D02*
X35060000Y-48507836D01*
%TO.C,C8*%
X36390000Y-45392164D02*
X36390000Y-45607836D01*
X37110000Y-45392164D02*
X37110000Y-45607836D01*
%TO.C,C7*%
X37640000Y-45392164D02*
X37640000Y-45607836D01*
X38360000Y-45392164D02*
X38360000Y-45607836D01*
%TO.C,C6*%
X39890000Y-55392164D02*
X39890000Y-55607836D01*
X40610000Y-55392164D02*
X40610000Y-55607836D01*
%TO.C,C4*%
X36140000Y-55372164D02*
X36140000Y-55587836D01*
X36860000Y-55372164D02*
X36860000Y-55587836D01*
%TO.C,C3*%
X22590000Y-25992164D02*
X22590000Y-26207836D01*
X23310000Y-25992164D02*
X23310000Y-26207836D01*
%TO.C,C2*%
X44627836Y-53240000D02*
X44412164Y-53240000D01*
X44627836Y-53960000D02*
X44412164Y-53960000D01*
%TO.C,Y1*%
X27000000Y-20900000D02*
X27000000Y-26650000D01*
X30600000Y-20900000D02*
X27000000Y-20900000D01*
X30600000Y-26650000D02*
X30600000Y-20900000D01*
%TO.C,U8*%
X34865000Y-23390000D02*
X34390000Y-23390000D01*
X41610000Y-30610000D02*
X41610000Y-30135000D01*
X41135000Y-30610000D02*
X41610000Y-30610000D01*
X34390000Y-30610000D02*
X34390000Y-30135000D01*
X34865000Y-30610000D02*
X34390000Y-30610000D01*
X41610000Y-23390000D02*
X41610000Y-23865000D01*
X41135000Y-23390000D02*
X41610000Y-23390000D01*
%TO.C,U5*%
X51740000Y-29920000D02*
X53200000Y-29920000D01*
X51740000Y-33080000D02*
X53900000Y-33080000D01*
X51740000Y-33080000D02*
X51740000Y-32150000D01*
X51740000Y-29920000D02*
X51740000Y-30850000D01*
%TO.C,U4*%
X35440000Y-50500000D02*
X35440000Y-53950000D01*
X35440000Y-50500000D02*
X35440000Y-48550000D01*
X40560000Y-50500000D02*
X40560000Y-52450000D01*
X40560000Y-50500000D02*
X40560000Y-48550000D01*
%TO.C,U3*%
X18350000Y-28660000D02*
X21800000Y-28660000D01*
X18350000Y-28660000D02*
X16400000Y-28660000D01*
X18350000Y-23540000D02*
X20300000Y-23540000D01*
X18350000Y-23540000D02*
X16400000Y-23540000D01*
D13*
%TO.C,D3*%
X33900000Y-49750000D02*
X33500000Y-49750000D01*
X33900000Y-49750000D02*
X33900000Y-49350000D01*
X33900000Y-45250000D02*
X33900000Y-45650000D01*
X33900000Y-45250000D02*
X33500000Y-45250000D01*
X31100000Y-45250000D02*
X31500000Y-45250000D01*
X31100000Y-45250000D02*
X31100000Y-45650000D01*
X31100000Y-49750000D02*
X31500000Y-49750000D01*
X31100000Y-49750000D02*
X31100000Y-49350000D01*
X33899540Y-46136020D02*
X33899540Y-46059820D01*
X33434720Y-46136020D02*
X33899540Y-46136020D01*
X33434720Y-46059820D02*
X33434720Y-46136020D01*
X33899540Y-46059820D02*
X33434720Y-46059820D01*
X31097920Y-46136020D02*
X31097920Y-46059820D01*
X31557660Y-46136020D02*
X31097920Y-46136020D01*
X31557660Y-46059820D02*
X31557660Y-46136020D01*
X31097920Y-46059820D02*
X31557660Y-46059820D01*
%TO.C,D2*%
X30750000Y-16900000D02*
X30750000Y-16500000D01*
X30750000Y-16900000D02*
X31150000Y-16900000D01*
X35250000Y-16900000D02*
X34850000Y-16900000D01*
X35250000Y-16900000D02*
X35250000Y-16500000D01*
X35250000Y-14100000D02*
X35250000Y-14500000D01*
X35250000Y-14100000D02*
X34850000Y-14100000D01*
X30750000Y-14100000D02*
X30750000Y-14500000D01*
X30750000Y-14100000D02*
X31150000Y-14100000D01*
X34363980Y-16899540D02*
X34440180Y-16899540D01*
X34363980Y-16434720D02*
X34363980Y-16899540D01*
X34440180Y-16434720D02*
X34363980Y-16434720D01*
X34440180Y-16899540D02*
X34440180Y-16434720D01*
X34363980Y-14097920D02*
X34440180Y-14097920D01*
X34363980Y-14557660D02*
X34363980Y-14097920D01*
X34440180Y-14557660D02*
X34363980Y-14557660D01*
X34440180Y-14097920D02*
X34440180Y-14557660D01*
D11*
%TO.C,D1*%
X45650000Y-22000000D02*
X41750000Y-22000000D01*
X45650000Y-20000000D02*
X41750000Y-20000000D01*
X45650000Y-22000000D02*
X45650000Y-20000000D01*
%TD*%
M02*
