M48
; DRILL file {KiCad (5.1.10)-1} date 07/05/21 19:11:22
; FORMAT={-:-/ absolute / inch / decimal}
; #@! TF.CreationDate,2021-07-05T19:11:22-05:00
; #@! TF.GenerationSoftware,Kicad,Pcbnew,(5.1.10)-1
; #@! TF.FileFunction,Plated,1,2,PTH
FMAT,2
INCH
T1C0.0118
T2C0.0157
T3C0.0236
T4C0.0374
T5C0.0394
T6C0.1260
%
G90
G05
T1
X0.6299Y-0.689
X0.6929Y-1.6142
X0.7028Y-0.628
X0.7283Y-1.7362
X0.7362Y-1.0276
X0.7657Y-1.5512
X0.8012Y-1.3681
X0.8031Y-1.3189
X0.8189Y-0.622
X0.8248Y-1.7618
X0.8287Y-1.4488
X0.8327Y-1.5295
X0.8754Y-1.0026
X0.8766Y-1.0526
X0.8819Y-2.1339
X0.9291Y-1.8583
X0.9528Y-1.9449
X1.0047Y-1.4304
X1.0047Y-1.465
X1.0217Y-1.2173
X1.0345Y-1.2461
X1.063Y-2.0315
X1.063Y-1.9291
X1.07Y-1.8253
X1.0945Y-2.126
X1.1024Y-1.9291
X1.1024Y-2.0315
X1.1358Y-1.1083
X1.1417Y-0.9449
X1.1752Y-1.339
X1.2182Y-0.8581
X1.2205Y-1.5354
X1.2205Y-1.5669
X1.2205Y-1.5984
X1.2205Y-1.6299
X1.2205Y-1.6614
X1.2205Y-1.6929
X1.2205Y-1.7244
X1.2205Y-1.7559
X1.2205Y-1.7874
X1.2205Y-1.8189
X1.2225Y-1.1773
X1.2244Y-1.8504
X1.2422Y-1.3362
X1.252Y-1.8661
X1.2598Y-1.4882
X1.2598Y-0.8315
X1.2614Y-1.1421
X1.2707Y-1.3228
X1.2795Y-1.878
X1.2854Y-1.2067
X1.2913Y-1.4882
X1.2945Y-1.3968
X1.3071Y-0.9055
X1.3071Y-1.8819
X1.3228Y-0.9921
X1.3228Y-1.4882
X1.3239Y-1.0725
X1.3307Y-1.252
X1.3307Y-1.8976
X1.3324Y-1.1905
X1.3622Y-1.498
X1.3622Y-1.5354
X1.3622Y-1.5669
X1.3622Y-1.5984
X1.3622Y-1.6299
X1.3622Y-1.6614
X1.3622Y-1.6929
X1.3622Y-1.7244
X1.3622Y-1.7559
X1.3622Y-1.7874
X1.3622Y-1.9449
X1.3632Y-1.1973
X1.3858Y-0.7559
X1.4016Y-1.9469
X1.4094Y-0.9843
X1.4173Y-1.1181
X1.4173Y-1.4252
X1.4252Y-2.1339
X1.4376Y-1.2416
X1.4437Y-0.8381
X1.4488Y-1.9449
X1.4508Y-1.8425
X1.4528Y-1.8917
X1.466Y-0.8604
X1.4961Y-1.9685
X1.4961Y-2.0079
X1.4961Y-0.8819
X1.5118Y-1.0157
X1.5148Y-1.8297
X1.5197Y-1.1496
X1.5267Y-0.8893
X1.5354Y-1.9685
X1.5354Y-2.0079
X1.5512Y-1.2362
X1.5512Y-1.7047
X1.5581Y-0.891
X1.5748Y-1.9685
X1.5748Y-2.0079
X1.5768Y-0.8089
X1.5906Y-1.0787
X1.6043Y-1.2421
X1.624Y-0.7663
X1.6402Y-0.9291
X1.6626Y-1.0527
X1.6634Y-1.3583
X1.684Y-1.0759
X1.7012Y-0.9921
X1.7028Y-1.1015
X1.7028Y-0.9606
X1.7094Y-0.9128
X1.7164Y-1.2679
X1.7244Y-0.7606
X1.7244Y-2.0
X1.7309Y-1.0029
X1.7422Y-1.2256
X1.7559Y-1.5039
X1.7559Y-1.6142
X1.7559Y-1.748
X1.7618Y-1.0307
X1.7638Y-1.1336
X1.7638Y-1.8504
X1.7638Y-1.9134
X1.7904Y-1.2402
X1.8031Y-0.874
X1.8189Y-0.7087
X1.8189Y-2.1102
X1.8346Y-1.4094
X1.8504Y-0.874
X1.8583Y-0.9449
X1.8931Y-1.8641
X1.9213Y-1.3386
X1.9348Y-1.8573
X1.9449Y-1.5157
X1.9624Y-1.8573
X1.9764Y-0.6299
X1.9909Y-1.8573
X2.0276Y-1.0827
X2.045Y-1.85
X2.126Y-0.8898
X2.1417Y-2.1339
X2.1732Y-1.2047
T2
X1.4173Y-0.6142
X1.4711Y-2.1195
T4
X0.6693Y-1.2441
X0.6693Y-1.3425
X0.6693Y-1.4409
X0.9449Y-1.1417
X0.9449Y-1.2402
X0.9449Y-1.3386
X0.9449Y-1.5748
X0.9449Y-1.6732
X0.9449Y-1.7717
X1.0236Y-0.7087
X1.122Y-0.7087
X1.2205Y-0.7087
X1.3189Y-0.7087
X1.8346Y-1.4803
X1.8346Y-1.5787
X1.8346Y-1.6772
X1.8346Y-1.7756
T5
X0.6693Y-1.6732
X0.6693Y-1.7717
X1.1583Y-1.478
X1.1583Y-1.578
X1.1583Y-1.678
X1.1583Y-1.778
X1.1583Y-1.878
X1.1583Y-1.978
X1.1583Y-2.078
X1.1583Y-2.178
X1.2583Y-2.178
X1.3583Y-2.178
X1.6583Y-1.478
X1.6583Y-1.578
X1.6583Y-1.678
X1.6583Y-1.778
X1.6583Y-1.878
X1.6583Y-1.978
X1.6583Y-2.078
X1.6583Y-2.178
X1.811Y-0.9811
X1.811Y-1.0811
X1.811Y-1.1811
X1.911Y-0.9811
X1.911Y-1.0811
X1.911Y-1.1811
X2.1063Y-1.0236
X2.1063Y-1.122
X2.1063Y-1.3583
X2.1063Y-1.4567
X2.1102Y-1.6929
X2.1102Y-1.7913
T6
X0.7874Y-0.7874
X0.7874Y-2.0079
X2.0079Y-0.7874
X2.0079Y-2.0079
T3
G00X1.5031Y-0.5965
M15
G01X1.5031Y-0.6201
M16
G05
G00X1.5031Y-0.7512
M15
G01X1.5031Y-0.7945
M16
G05
G00X1.8433Y-0.5965
M15
G01X1.8433Y-0.6201
M16
G05
G00X1.8433Y-0.7512
M15
G01X1.8433Y-0.7945
M16
G05
T0
M30
