%TF.GenerationSoftware,KiCad,Pcbnew,(5.1.9-0-10_14)*%
%TF.CreationDate,2021-06-30T10:16:09+02:00*%
%TF.ProjectId,turbocan,74757262-6f63-4616-9e2e-6b696361645f,rev?*%
%TF.SameCoordinates,Original*%
%TF.FileFunction,Soldermask,Bot*%
%TF.FilePolarity,Negative*%
%FSLAX46Y46*%
G04 Gerber Fmt 4.6, Leading zero omitted, Abs format (unit mm)*
G04 Created by KiCad (PCBNEW (5.1.9-0-10_14)) date 2021-06-30 10:16:09*
%MOMM*%
%LPD*%
G01*
G04 APERTURE LIST*
%ADD10O,1.950000X1.700000*%
%ADD11O,2.000000X1.700000*%
%ADD12R,0.600000X1.450000*%
%ADD13R,0.300000X1.450000*%
%ADD14O,1.000000X2.100000*%
%ADD15C,0.650000*%
%ADD16O,1.000000X1.600000*%
%ADD17C,5.600000*%
%ADD18C,2.000000*%
%ADD19O,1.700000X1.950000*%
%ADD20O,1.700000X1.700000*%
%ADD21R,1.700000X1.700000*%
G04 APERTURE END LIST*
D10*
%TO.C,J8*%
X24000000Y-45000000D03*
X24000000Y-42500000D03*
G36*
G01*
X23275000Y-39150000D02*
X24725000Y-39150000D01*
G75*
G02*
X24975000Y-39400000I0J-250000D01*
G01*
X24975000Y-40600000D01*
G75*
G02*
X24725000Y-40850000I-250000J0D01*
G01*
X23275000Y-40850000D01*
G75*
G02*
X23025000Y-40600000I0J250000D01*
G01*
X23025000Y-39400000D01*
G75*
G02*
X23275000Y-39150000I250000J0D01*
G01*
G37*
%TD*%
%TO.C,C21*%
G36*
G01*
X36700000Y-47050000D02*
X34700000Y-47050000D01*
G75*
G02*
X34450000Y-46800000I0J250000D01*
G01*
X34450000Y-43800000D01*
G75*
G02*
X34700000Y-43550000I250000J0D01*
G01*
X36700000Y-43550000D01*
G75*
G02*
X36950000Y-43800000I0J-250000D01*
G01*
X36950000Y-46800000D01*
G75*
G02*
X36700000Y-47050000I-250000J0D01*
G01*
G37*
G36*
G01*
X36700000Y-53550000D02*
X34700000Y-53550000D01*
G75*
G02*
X34450000Y-53300000I0J250000D01*
G01*
X34450000Y-50300000D01*
G75*
G02*
X34700000Y-50050000I250000J0D01*
G01*
X36700000Y-50050000D01*
G75*
G02*
X36950000Y-50300000I0J-250000D01*
G01*
X36950000Y-53300000D01*
G75*
G02*
X36700000Y-53550000I-250000J0D01*
G01*
G37*
%TD*%
D11*
%TO.C,J13*%
X53600000Y-45500000D03*
G36*
G01*
X52850000Y-42150000D02*
X54350000Y-42150000D01*
G75*
G02*
X54600000Y-42400000I0J-250000D01*
G01*
X54600000Y-43600000D01*
G75*
G02*
X54350000Y-43850000I-250000J0D01*
G01*
X52850000Y-43850000D01*
G75*
G02*
X52600000Y-43600000I0J250000D01*
G01*
X52600000Y-42400000D01*
G75*
G02*
X52850000Y-42150000I250000J0D01*
G01*
G37*
%TD*%
D12*
%TO.C,J1*%
X45750000Y-20545000D03*
X44950000Y-20545000D03*
X40050000Y-20545000D03*
X39250000Y-20545000D03*
X39250000Y-20545000D03*
X40050000Y-20545000D03*
X44950000Y-20545000D03*
X45750000Y-20545000D03*
D13*
X40750000Y-20545000D03*
X41250000Y-20545000D03*
X41750000Y-20545000D03*
X42750000Y-20545000D03*
X43250000Y-20545000D03*
X43750000Y-20545000D03*
X44250000Y-20545000D03*
X42250000Y-20545000D03*
D14*
X46820000Y-19630000D03*
X38180000Y-19630000D03*
D15*
X39610000Y-19100000D03*
D16*
X38180000Y-15450000D03*
D15*
X45390000Y-19100000D03*
D16*
X46820000Y-15450000D03*
%TD*%
D17*
%TO.C,H4*%
X51000000Y-51000000D03*
%TD*%
%TO.C,H3*%
X51000000Y-20000000D03*
%TD*%
%TO.C,H2*%
X20000000Y-51000000D03*
%TD*%
%TO.C,H1*%
X20000000Y-20000000D03*
%TD*%
D18*
%TO.C,U2*%
X31960000Y-55320000D03*
X34500000Y-55320000D03*
X29420000Y-55320000D03*
X29420000Y-52780000D03*
X29420000Y-50240000D03*
X29420000Y-47700000D03*
X29420000Y-45160000D03*
X29420000Y-42620000D03*
X29420000Y-40080000D03*
X29420000Y-37540000D03*
X42120000Y-55320000D03*
X42120000Y-52780000D03*
X42120000Y-50240000D03*
X42120000Y-47700000D03*
X42120000Y-45160000D03*
X42120000Y-42620000D03*
X42120000Y-40080000D03*
X42120000Y-37540000D03*
%TD*%
D10*
%TO.C,J14*%
X17000000Y-36600000D03*
X17000000Y-34100000D03*
G36*
G01*
X16275000Y-30750000D02*
X17725000Y-30750000D01*
G75*
G02*
X17975000Y-31000000I0J-250000D01*
G01*
X17975000Y-32200000D01*
G75*
G02*
X17725000Y-32450000I-250000J0D01*
G01*
X16275000Y-32450000D01*
G75*
G02*
X16025000Y-32200000I0J250000D01*
G01*
X16025000Y-31000000D01*
G75*
G02*
X16275000Y-30750000I250000J0D01*
G01*
G37*
%TD*%
D11*
%TO.C,J12*%
X53500000Y-37000000D03*
G36*
G01*
X52750000Y-33650000D02*
X54250000Y-33650000D01*
G75*
G02*
X54500000Y-33900000I0J-250000D01*
G01*
X54500000Y-35100000D01*
G75*
G02*
X54250000Y-35350000I-250000J0D01*
G01*
X52750000Y-35350000D01*
G75*
G02*
X52500000Y-35100000I0J250000D01*
G01*
X52500000Y-33900000D01*
G75*
G02*
X52750000Y-33650000I250000J0D01*
G01*
G37*
%TD*%
%TO.C,J11*%
X53500000Y-28500000D03*
G36*
G01*
X52750000Y-25150000D02*
X54250000Y-25150000D01*
G75*
G02*
X54500000Y-25400000I0J-250000D01*
G01*
X54500000Y-26600000D01*
G75*
G02*
X54250000Y-26850000I-250000J0D01*
G01*
X52750000Y-26850000D01*
G75*
G02*
X52500000Y-26600000I0J250000D01*
G01*
X52500000Y-25400000D01*
G75*
G02*
X52750000Y-25150000I250000J0D01*
G01*
G37*
%TD*%
D19*
%TO.C,J10*%
X33500000Y-18000000D03*
X31000000Y-18000000D03*
X28500000Y-18000000D03*
G36*
G01*
X25150000Y-18725000D02*
X25150000Y-17275000D01*
G75*
G02*
X25400000Y-17025000I250000J0D01*
G01*
X26600000Y-17025000D01*
G75*
G02*
X26850000Y-17275000I0J-250000D01*
G01*
X26850000Y-18725000D01*
G75*
G02*
X26600000Y-18975000I-250000J0D01*
G01*
X25400000Y-18975000D01*
G75*
G02*
X25150000Y-18725000I0J250000D01*
G01*
G37*
%TD*%
D11*
%TO.C,J9*%
X17000000Y-45000000D03*
G36*
G01*
X16250000Y-41650000D02*
X17750000Y-41650000D01*
G75*
G02*
X18000000Y-41900000I0J-250000D01*
G01*
X18000000Y-43100000D01*
G75*
G02*
X17750000Y-43350000I-250000J0D01*
G01*
X16250000Y-43350000D01*
G75*
G02*
X16000000Y-43100000I0J250000D01*
G01*
X16000000Y-41900000D01*
G75*
G02*
X16250000Y-41650000I250000J0D01*
G01*
G37*
%TD*%
D10*
%TO.C,J7*%
X24000000Y-34000000D03*
X24000000Y-31500000D03*
G36*
G01*
X23275000Y-28150000D02*
X24725000Y-28150000D01*
G75*
G02*
X24975000Y-28400000I0J-250000D01*
G01*
X24975000Y-29600000D01*
G75*
G02*
X24725000Y-29850000I-250000J0D01*
G01*
X23275000Y-29850000D01*
G75*
G02*
X23025000Y-29600000I0J250000D01*
G01*
X23025000Y-28400000D01*
G75*
G02*
X23275000Y-28150000I250000J0D01*
G01*
G37*
%TD*%
D20*
%TO.C,J5*%
X48540000Y-24920000D03*
X46000000Y-24920000D03*
X48540000Y-27460000D03*
X46000000Y-27460000D03*
X48540000Y-30000000D03*
D21*
X46000000Y-30000000D03*
%TD*%
D10*
%TO.C,J2*%
X46600000Y-45100000D03*
X46600000Y-42600000D03*
X46600000Y-40100000D03*
G36*
G01*
X45875000Y-36750000D02*
X47325000Y-36750000D01*
G75*
G02*
X47575000Y-37000000I0J-250000D01*
G01*
X47575000Y-38200000D01*
G75*
G02*
X47325000Y-38450000I-250000J0D01*
G01*
X45875000Y-38450000D01*
G75*
G02*
X45625000Y-38200000I0J250000D01*
G01*
X45625000Y-37000000D01*
G75*
G02*
X45875000Y-36750000I250000J0D01*
G01*
G37*
%TD*%
M02*
